<svg xmlns="http://www.w3.org/2000/svg" viewBox="0 0 200 200" role="img" aria-label="AI Safety Radar logo">
  <title>AI Safety Radar</title>
  <desc>A blue chevron shield containing a radar quadrant sweep and a 2-3 neural network in white.</desc>

  <path d="M 100 12 L 180 40 L 180 100 C 180 144 146 178 100 192 C 54 178 20 144 20 100 L 20 40 Z" fill="#0b6aa8"/>

  <path d="M 100 100 L 100 50 A 50 50 0 0 1 150 100 Z" fill="#ffffff" fill-opacity="0.25"/>

  <circle cx="100" cy="100" r="50" fill="none" stroke="#ffffff" stroke-width="5" stroke-opacity="0.55"/>

  <g stroke="#ffffff" stroke-width="4" stroke-opacity="0.9">
    <line x1="76" y1="86" x2="124" y2="74"/>
    <line x1="76" y1="86" x2="124" y2="100"/>
    <line x1="76" y1="86" x2="124" y2="126"/>
    <line x1="76" y1="114" x2="124" y2="74"/>
    <line x1="76" y1="114" x2="124" y2="100"/>
    <line x1="76" y1="114" x2="124" y2="126"/>
  </g>

  <g fill="#ffffff">
    <circle cx="76" cy="86" r="10"/>
    <circle cx="76" cy="114" r="10"/>
    <circle cx="124" cy="74" r="10"/>
    <circle cx="124" cy="100" r="10"/>
    <circle cx="124" cy="126" r="10"/>
  </g>
</svg>
